<svg width="320" height="52" viewBox="0 0 320 52" fill="none" xmlns="http://www.w3.org/2000/svg">
<path d="M0 0L8.88889 2.88889C17.7778 5.77778 35.5556 11.5556 53.3333 17.3333C71.1111 23.1111 88.8889 28.8889 106.667 28.8889C124.444 28.8889 142.222 23.1111 160 18.2903C177.778 13.5417 195.556 9.56945 213.333 12.5125C231.111 15.3472 248.889 25.0972 266.667 26C284.444 26.9028 302.222 19.3194 311.111 15.4014L320 11.5556V52H311.111C302.222 52 284.444 52 266.667 52C248.889 52 231.111 52 213.333 52C195.556 52 177.778 52 160 52C142.222 52 124.444 52 106.667 52C88.8889 52 71.1111 52 53.3333 52C35.5556 52 17.7778 52 8.88889 52H0V0Z" fill="white"/>
</svg>
