<svg width="1680" height="244" viewBox="0 0 1680 244" fill="none" xmlns="http://www.w3.org/2000/svg">
<g clip-path="url(#clip0_237_1752)">
<path d="M0 24.3999L46.6667 36.5999C93.3333 48.7999 186.667 73.1999 280 97.5999C373.333 122 466.667 146.4 560 146.4C653.333 146.4 746.667 122 840 101.641C933.333 81.5874 1026.67 64.8124 1120 77.2412C1213.33 89.2124 1306.67 130.387 1400 134.2C1493.33 138.012 1586.67 105.987 1633.33 89.4412L1680 73.1999V244H1633.33C1586.67 244 1493.33 244 1400 244C1306.67 244 1213.33 244 1120 244C1026.67 244 933.333 244 840 244C746.667 244 653.333 244 560 244C466.667 244 373.333 244 280 244C186.667 244 93.3333 244 46.6667 244H0V24.3999Z" fill="white"/>
</g>
<defs>
<clipPath id="clip0_237_1752">
<rect width="1680" height="244" fill="white"/>
</clipPath>
</defs>
</svg>
