<svg width="320" height="71" viewBox="0 0 320 71" fill="none" xmlns="http://www.w3.org/2000/svg">
<path d="M0 0L8.88889 3.94444C17.7778 7.88889 35.5556 15.7778 53.3333 23.6667C71.1111 31.5556 88.8889 39.4444 106.667 39.4444C124.444 39.4444 142.222 31.5556 160 24.9733C177.778 18.4896 195.556 13.066 213.333 17.0844C231.111 20.9549 248.889 34.2674 266.667 35.5C284.444 36.7326 302.222 26.3785 311.111 21.0288L320 15.7778V71H311.111C302.222 71 284.444 71 266.667 71C248.889 71 231.111 71 213.333 71C195.556 71 177.778 71 160 71C142.222 71 124.444 71 106.667 71C88.8889 71 71.1111 71 53.3333 71C35.5556 71 17.7778 71 8.88889 71H0V0Z" fill="white"/>
</svg>
